<svg xmlns="http://www.w3.org/2000/svg" viewBox="0 0 120 120">
  <defs>
    <linearGradient id="grad" x1="0%" y1="0%" x2="100%" y2="100%">
      <stop offset="0%" stop-color="#38bdf8" />
      <stop offset="100%" stop-color="#a855f7" />
    </linearGradient>
  </defs>
  <rect width="120" height="120" rx="28" fill="url(#grad)" />
  <path d="M38 33h44a6 6 0 0 1 6 6v42a6 6 0 0 1-6 6H38a6 6 0 0 1-6-6V39a6 6 0 0 1 6-6Z" fill="rgba(255,255,255,0.18)" />
  <path d="M48 36h24a4 4 0 0 1 4 4v8a4 4 0 0 1-4 4H48a4 4 0 0 1-4-4v-8a4 4 0 0 1 4-4Z" fill="#fff" opacity="0.9" />
  <path d="M48 66h24a4 4 0 0 1 4 4v18a4 4 0 0 1-4 4H48a4 4 0 0 1-4-4V70a4 4 0 0 1 4-4Z" fill="#fff" opacity="0.9" />
  <circle cx="38" cy="42" r="4" fill="#fff" opacity="0.85" />
</svg>
